# 3ds Max Wavefront OBJ Exporter v0.97b - (c)2007 guruware
# File Created: 24.09.2016 15:30:46

mtllib TrainStoboard_1.mtl

#
# object plate_B
#

v  0.2862 2.1714 -2.3503
v  0.2862 2.2040 -2.2497
v  0.2862 2.1185 -2.1875
v  -0.2862 2.1714 -2.3503
v  -0.2862 2.2040 -2.2497
v  -0.2862 2.1185 -2.1875
v  -0.2862 2.0329 -2.2497
v  0.2862 2.0329 -2.2497
v  -0.2862 2.0655 -2.3503
v  0.2862 2.0655 -2.3503
# 10 vertices

vn 1.0000 0.0000 -0.0000
vn 0.0000 0.9511 -0.3090
vn 0.0000 0.5878 0.8090
vn 0.0000 -0.5878 0.8090
vn 0.0000 -0.9511 -0.3090
vn -1.0000 0.0000 -0.0000
vn 0.0000 0.0000 -1.0000
# 7 vertex normals

vt 0.8450 0.0430 0.0000
vt 0.8171 0.0430 0.0000
vt 0.8084 0.0166 0.0000
vt 0.0063 0.9272 0.0000
vt 0.0063 0.8928 0.0000
vt 0.1914 0.8928 0.0000
vt 0.1914 0.9272 0.0000
vt 0.1914 0.9614 0.0000
vt 0.0063 0.9614 0.0000
vt 0.1914 0.9955 0.0000
vt 0.0063 0.9955 0.0000
vt 0.0063 0.8243 0.0000
vt 0.1914 0.8243 0.0000
vt 0.1914 0.8587 0.0000
vt 0.0063 0.8587 0.0000
vt 0.8534 0.1209 0.0000
vt 0.8084 0.1209 0.0000
vt 0.8311 0.1044 0.0000
vt 0.8171 0.1473 0.0000
vt 0.8535 0.0166 0.0000
vt 0.8311 0.0000 0.0000
vt 0.8451 0.1473 0.0000
# 22 texture coords

g plate_B
usemtl ADBAnner
f 1/1/1 2/2/1 3/3/1 
f 2/4/2 1/5/2 4/6/2 5/7/2 
f 6/8/3 3/9/3 2/4/3 5/7/3 
f 6/8/4 7/10/4 8/11/4 3/9/4 
f 8/12/5 7/13/5 9/14/5 10/15/5 
f 6/16/6 9/17/6 7/18/6 
f 6/16/6 4/19/6 9/17/6 
f 10/15/7 9/14/7 4/6/7 1/5/7 
f 3/3/1 10/20/1 1/1/1 
f 3/3/1 8/21/1 10/20/1 
f 4/19/6 6/16/6 5/22/6 
# 5 polygons - 6 triangles

