# 3ds Max Wavefront OBJ Exporter v0.97b - (c)2007 guruware
# File Created: 24.09.2016 15:31:03

mtllib TrainStoboard_2.mtl

#
# object plate_A
#

v  -0.2862 2.1714 2.3503
v  -0.2862 2.2040 2.2497
v  -0.2862 2.1185 2.1875
v  0.2862 2.1714 2.3503
v  0.2862 2.2040 2.2497
v  0.2862 2.1185 2.1875
v  0.2862 2.0329 2.2497
v  -0.2862 2.0329 2.2497
v  -0.2862 2.0655 2.3503
v  0.2862 2.0655 2.3503
# 10 vertices

vn -1.0000 0.0000 -0.0000
vn 0.0000 0.9511 0.3090
vn 0.0000 -0.5878 -0.8090
vn 0.0000 -0.9511 0.3090
vn 1.0000 0.0000 -0.0000
vn 0.0000 0.0000 1.0000
vn 0.0000 0.5878 -0.8090
# 7 vertex normals

vt 0.8431 0.3561 0.0000
vt 0.8149 0.3561 0.0000
vt 0.8066 0.3296 0.0000
vt 0.0073 0.7300 0.0000
vt 0.0072 0.6958 0.0000
vt 0.1924 0.6958 0.0000
vt 0.1924 0.7300 0.0000
vt 0.1924 0.7641 0.0000
vt 0.1925 0.7983 0.0000
vt 0.0073 0.7983 0.0000
vt 0.0073 0.7642 0.0000
vt 0.0072 0.6615 0.0000
vt 0.0072 0.6271 0.0000
vt 0.1924 0.6273 0.0000
vt 0.1924 0.6614 0.0000
vt 0.8534 0.2353 0.0000
vt 0.8169 0.2088 0.0000
vt 0.8449 0.2088 0.0000
vt 0.8084 0.2353 0.0000
vt 0.8516 0.3296 0.0000
vt 0.8289 0.3132 0.0000
vt 0.8309 0.2516 0.0000
# 22 texture coords

g plate_A
usemtl ADBAnner
f 1/1/1 2/2/1 3/3/1 
f 2/4/2 1/5/2 4/6/2 5/7/2 
f 6/8/3 7/9/3 8/10/3 3/11/3 
f 9/12/4 8/13/4 7/14/4 10/15/4 
f 6/16/5 10/17/5 7/18/5 
f 6/16/5 4/19/5 10/17/5 
f 9/12/6 10/15/6 4/6/6 1/5/6 
f 3/3/1 9/20/1 1/1/1 
f 8/21/1 9/20/1 3/3/1 
f 4/19/5 6/16/5 5/22/5 
f 6/8/7 3/11/7 2/4/7 5/7/7 
# 5 polygons - 6 triangles

