# 3ds Max Wavefront OBJ Exporter v0.97b - (c)2007 guruware
# File Created: 22.09.2016 22:09:33

mtllib overhead_type02.mtl

#
# object Mesh
#

v  -0.1464 -0.0323 -0.0030
v  -1.4159 -0.0323 -0.0030
v  -1.4159 -0.0293 -0.0000
v  -0.1464 -0.0293 -0.0000
v  -1.4159 -0.0323 0.0030
v  -0.1464 -0.0323 0.0030
v  -1.4159 -0.0353 -0.0000
v  -0.1464 -0.0353 -0.0000
v  -0.0149 -0.0136 -0.0237
v  0.0137 -0.0136 -0.0237
v  0.0137 0.0164 -0.0237
v  -0.0149 0.0164 -0.0237
v  0.0137 0.0164 -0.0277
v  -0.0189 0.0164 -0.0277
v  0.0137 0.0164 0.0277
v  -0.0189 0.0164 0.0277
v  -0.0189 -0.0136 0.0277
v  0.0137 -0.0136 0.0277
v  -0.0149 -0.0136 0.0237
v  0.0137 -0.0136 0.0237
v  0.0137 -0.0136 -0.0277
v  -0.0189 -0.0136 -0.0277
v  0.0225 -0.0048 -0.0277
v  0.0225 0.0076 -0.0277
v  0.0225 0.0076 -0.0237
v  0.0225 -0.0048 -0.0237
v  -0.0149 0.0164 0.0237
v  0.0137 0.0164 0.0237
v  0.0225 0.0076 0.0237
v  0.0225 0.0076 0.0277
v  0.0225 -0.0048 0.0277
v  0.0225 -0.0048 0.0237
v  -1.4121 0.0055 -0.0071
v  -1.4121 0.0097 -0.0000
v  -0.5389 0.0097 -0.0000
v  -0.5389 0.0055 -0.0071
v  -0.5389 0.0084 -0.0121
v  -0.5389 0.0154 -0.0000
v  -0.5389 0.0055 0.0071
v  -0.5389 0.0084 0.0121
v  -0.5389 -0.0027 0.0071
v  -0.5389 -0.0056 0.0121
v  -0.5389 -0.0126 -0.0000
v  -0.5389 -0.0068 -0.0000
v  -1.4121 -0.0027 0.0071
v  -1.4121 -0.0068 -0.0000
v  -1.4121 -0.0126 -0.0000
v  -1.4121 -0.0056 0.0121
v  -1.4121 0.0084 0.0121
v  -1.4121 0.0055 0.0071
v  -1.4121 0.0154 -0.0000
v  -1.4271 0.0154 -0.0000
v  -1.4271 0.0084 0.0121
v  -1.4271 -0.0126 -0.0000
v  -1.4271 -0.0056 0.0121
v  -1.4121 -0.0056 -0.0121
v  -1.4271 -0.0056 -0.0121
v  -1.4271 0.0084 -0.0121
v  -1.4121 0.0084 -0.0121
v  -1.4121 -0.0027 -0.0071
v  -0.5389 -0.0027 -0.0071
v  -0.5389 -0.0056 -0.0121
v  -0.0189 -0.0056 -0.0121
v  -0.0189 0.0084 -0.0121
v  -0.0189 0.0154 -0.0000
v  -0.0189 0.0084 0.0121
v  -0.0189 -0.0056 0.0121
v  -0.0189 -0.0126 -0.0000
v  -1.4159 -0.0343 -0.0067
v  -1.4159 -0.0276 -0.0095
v  -1.4159 -0.0276 0.0095
v  -1.4159 -0.0343 0.0067
v  -1.4234 -0.0343 0.0067
v  -1.4234 -0.0276 0.0095
v  -1.4159 -0.0071 0.0095
v  -1.4234 -0.0071 0.0095
v  -1.4159 -0.0126 -0.0000
v  -1.4159 -0.0071 -0.0095
v  -1.4234 -0.0071 -0.0095
v  -1.4234 -0.0276 -0.0095
v  -1.4234 -0.0343 -0.0067
v  -1.4234 -0.0371 -0.0000
v  -1.4159 -0.0371 -0.0000
v  -1.4234 -0.0126 -0.0000
v  -0.1389 -0.0343 -0.0067
v  -0.1389 -0.0276 -0.0095
v  -0.1389 -0.0276 0.0095
v  -0.1389 -0.0343 0.0067
v  -0.1464 -0.0343 0.0067
v  -0.1464 -0.0276 0.0095
v  -0.1389 -0.0071 0.0095
v  -0.1464 -0.0071 0.0095
v  -0.1389 -0.0126 -0.0000
v  -0.1389 -0.0071 -0.0095
v  -0.1464 -0.0071 -0.0095
v  -0.1464 -0.0276 -0.0095
v  -0.1464 -0.0343 -0.0067
v  -0.1464 -0.0371 -0.0000
v  -0.1389 -0.0371 -0.0000
v  -0.1464 -0.0126 -0.0000
v  -1.4159 0.0372 0.0067
v  -1.4159 0.0304 0.0095
v  -1.4159 0.0304 -0.0095
v  -1.4159 0.0372 -0.0067
v  -1.4234 0.0372 -0.0067
v  -1.4234 0.0304 -0.0095
v  -1.4159 0.0099 -0.0095
v  -1.4234 0.0099 -0.0095
v  -1.4234 0.0154 -0.0000
v  -1.4234 0.0304 0.0095
v  -1.4234 0.0099 0.0095
v  -1.4159 0.0099 0.0095
v  -1.4159 0.0154 -0.0000
v  -1.4234 0.0372 0.0067
v  -1.4234 0.0400 -0.0000
v  -1.4159 0.0400 -0.0000
v  0.0052 0.4616 -0.0000
v  -1.4193 0.0310 -0.0000
v  -1.4201 0.0339 -0.0030
v  0.0044 0.4645 -0.0030
v  -1.4210 0.0368 -0.0000
v  0.0035 0.4674 -0.0000
v  0.0044 0.4645 0.0030
v  -1.4201 0.0339 0.0030
# 124 vertices

vn 0.0000 0.7071 -0.7071
vn 0.0000 0.7071 0.7071
vn 0.0000 -0.7071 0.7071
vn 0.0000 -0.7071 -0.7071
vn 0.0000 0.0000 1.0000
vn 0.0000 1.0000 -0.0000
vn 0.0000 -1.0000 -0.0000
vn 0.0000 0.0000 -1.0000
vn 0.7081 0.7061 -0.0000
vn 0.7081 -0.7061 -0.0000
vn 1.0000 0.0000 -0.0000
vn -1.0000 0.0000 -0.0000
vn 0.0000 0.8660 -0.5001
vn 0.0000 -0.8660 0.5001
vn 0.0000 0.8660 0.5001
vn 0.0000 0.8660 0.5000
vn 0.0000 -0.8660 0.5000
vn 0.0000 -0.8660 -0.5000
vn 0.0000 0.8660 -0.5000
vn 0.0000 -0.8660 -0.5001
vn 0.0000 -0.3827 0.9239
vn 0.0000 -0.3827 -0.9239
vn 0.0000 -0.9239 -0.3827
vn 0.0000 -0.9239 0.3827
vn 0.0000 0.3827 -0.9239
vn 0.0000 0.3827 0.9239
vn 0.0000 0.9239 0.3827
vn 0.0000 0.9239 -0.3827
vn 0.2046 -0.6768 -0.7071
vn -0.2046 0.6769 -0.7071
vn -0.2046 0.6769 0.7071
vn 0.2046 -0.6768 0.7071
# 32 vertex normals

vt 0.0026 0.3010 0.0000
vt 0.6842 0.3010 0.0000
vt 0.6842 0.3033 0.0000
vt 0.0026 0.3033 0.0000
vt 0.0026 0.2941 0.0000
vt 0.6842 0.2941 0.0000
vt 0.6842 0.2965 0.0000
vt 0.0026 0.2965 0.0000
vt 0.6842 0.2988 0.0000
vt 0.0026 0.2988 0.0000
vt 0.5173 0.1542 0.0000
vt 0.5019 0.1542 0.0000
vt 0.5019 0.1380 0.0000
vt 0.5173 0.1380 0.0000
vt 0.2093 0.4644 0.0000
vt 0.2093 0.4492 0.0000
vt 0.2114 0.4492 0.0000
vt 0.2114 0.4666 0.0000
vt 0.6799 0.0917 0.0000
vt 0.6975 0.0917 0.0000
vt 0.6975 0.1078 0.0000
vt 0.6799 0.1078 0.0000
vt 0.3293 0.3284 0.0000
vt 0.3293 0.3460 0.0000
vt 0.3271 0.3439 0.0000
vt 0.3272 0.3284 0.0000
vt 0.7447 0.1078 0.0000
vt 0.7271 0.1078 0.0000
vt 0.7271 0.0917 0.0000
vt 0.7447 0.0917 0.0000
vt 0.7495 0.1031 0.0000
vt 0.7495 0.0964 0.0000
vt 0.3076 0.4492 0.0000
vt 0.3143 0.4493 0.0000
vt 0.3143 0.4515 0.0000
vt 0.3076 0.4515 0.0000
vt 0.4972 0.1494 0.0000
vt 0.4972 0.1428 0.0000
vt 0.3011 0.4515 0.0000
vt 0.2945 0.4515 0.0000
vt 0.2945 0.4493 0.0000
vt 0.3011 0.4493 0.0000
vt 0.5427 0.1380 0.0000
vt 0.5427 0.1542 0.0000
vt 0.5580 0.1542 0.0000
vt 0.5580 0.1380 0.0000
vt 0.6298 0.3841 0.0000
vt 0.6363 0.3841 0.0000
vt 0.6363 0.3863 0.0000
vt 0.6298 0.3863 0.0000
vt 0.6752 0.1031 0.0000
vt 0.6752 0.0964 0.0000
vt 0.6232 0.3863 0.0000
vt 0.6167 0.3863 0.0000
vt 0.6167 0.3841 0.0000
vt 0.6232 0.3841 0.0000
vt 0.5627 0.1494 0.0000
vt 0.5627 0.1428 0.0000
vt 0.1842 0.4644 0.0000
vt 0.1820 0.4666 0.0000
vt 0.1820 0.4492 0.0000
vt 0.1842 0.4492 0.0000
vt 0.3016 0.3439 0.0000
vt 0.2994 0.3460 0.0000
vt 0.2994 0.3284 0.0000
vt 0.3016 0.3284 0.0000
vt 0.0026 0.1557 0.0000
vt 0.0026 0.1512 0.0000
vt 0.4721 0.1512 0.0000
vt 0.4721 0.1557 0.0000
vt 0.9850 0.1896 0.0000
vt 0.9835 0.1923 0.0000
vt 0.9791 0.1923 0.0000
vt 0.9776 0.1896 0.0000
vt 0.9769 0.1962 0.0000
vt 0.9737 0.1962 0.0000
vt 0.9791 0.2000 0.0000
vt 0.9776 0.2027 0.0000
vt 0.9850 0.2027 0.0000
vt 0.9835 0.2000 0.0000
vt 0.4721 0.1380 0.0000
vt 0.4721 0.1424 0.0000
vt 0.0026 0.1424 0.0000
vt 0.0026 0.1380 0.0000
vt 0.2614 0.5182 0.0000
vt 0.2599 0.5155 0.0000
vt 0.2622 0.5117 0.0000
vt 0.2652 0.5117 0.0000
vt 0.2614 0.5051 0.0000
vt 0.2599 0.5078 0.0000
vt 0.4721 0.1468 0.0000
vt 0.0026 0.1468 0.0000
vt 0.2555 0.5078 0.0000
vt 0.2539 0.5051 0.0000
vt 0.8418 0.2599 0.0000
vt 0.8493 0.2599 0.0000
vt 0.8493 0.2680 0.0000
vt 0.8418 0.2680 0.0000
vt 0.5992 0.1380 0.0000
vt 0.6028 0.1444 0.0000
vt 0.5878 0.1444 0.0000
vt 0.5915 0.1380 0.0000
vt 0.8342 0.2680 0.0000
vt 0.8267 0.2680 0.0000
vt 0.8267 0.2599 0.0000
vt 0.8342 0.2599 0.0000
vt 0.8643 0.2599 0.0000
vt 0.8719 0.2599 0.0000
vt 0.8719 0.2680 0.0000
vt 0.8643 0.2680 0.0000
vt 0.5915 0.1510 0.0000
vt 0.5992 0.1510 0.0000
vt 0.8568 0.2680 0.0000
vt 0.8568 0.2599 0.0000
vt 0.2533 0.5117 0.0000
vt 0.2502 0.5117 0.0000
vt 0.2539 0.5182 0.0000
vt 0.2555 0.5155 0.0000
vt 0.4721 0.1601 0.0000
vt 0.0026 0.1601 0.0000
vt 0.9889 0.1962 0.0000
vt 0.9857 0.1962 0.0000
vt 0.2820 0.2273 0.0000
vt 0.0026 0.2272 0.0000
vt 0.0026 0.2197 0.0000
vt 0.2820 0.2197 0.0000
vt 0.2820 0.2122 0.0000
vt 0.0026 0.2122 0.0000
vt 0.2820 0.2048 0.0000
vt 0.0026 0.2046 0.0000
vt 0.0026 0.1972 0.0000
vt 0.2820 0.1972 0.0000
vt 0.2820 0.1896 0.0000
vt 0.0026 0.1897 0.0000
vt 0.2820 0.2348 0.0000
vt 0.0026 0.2348 0.0000
vt 0.4721 0.1645 0.0000
vt 0.0026 0.1645 0.0000
vt 0.2464 0.4507 0.0000
vt 0.2500 0.4492 0.0000
vt 0.2500 0.4595 0.0000
vt 0.2464 0.4581 0.0000
vt 0.1298 0.5738 0.0000
vt 0.1298 0.5698 0.0000
vt 0.1337 0.5698 0.0000
vt 0.1337 0.5738 0.0000
vt 0.1446 0.5698 0.0000
vt 0.1446 0.5738 0.0000
vt 0.2610 0.4595 0.0000
vt 0.2581 0.4544 0.0000
vt 0.2610 0.4492 0.0000
vt 0.1071 0.5738 0.0000
vt 0.1071 0.5698 0.0000
vt 0.1181 0.5698 0.0000
vt 0.1181 0.5738 0.0000
vt 0.1219 0.5698 0.0000
vt 0.1219 0.5738 0.0000
vt 0.1259 0.5738 0.0000
vt 0.1259 0.5698 0.0000
vt 0.2449 0.4544 0.0000
vt 0.3627 0.3334 0.0000
vt 0.3642 0.3299 0.0000
vt 0.3642 0.3371 0.0000
vt 0.3678 0.3284 0.0000
vt 0.3678 0.3386 0.0000
vt 0.3759 0.3334 0.0000
vt 0.3789 0.3284 0.0000
vt 0.3789 0.3386 0.0000
vt 0.1085 0.6089 0.0000
vt 0.1122 0.6073 0.0000
vt 0.1122 0.6176 0.0000
vt 0.1085 0.6161 0.0000
vt 0.5188 0.3882 0.0000
vt 0.5188 0.3841 0.0000
vt 0.5227 0.3841 0.0000
vt 0.5227 0.3882 0.0000
vt 0.5337 0.3841 0.0000
vt 0.5337 0.3881 0.0000
vt 0.1231 0.6176 0.0000
vt 0.1202 0.6125 0.0000
vt 0.1231 0.6073 0.0000
vt 0.4961 0.3881 0.0000
vt 0.4961 0.3841 0.0000
vt 0.5071 0.3841 0.0000
vt 0.5071 0.3881 0.0000
vt 0.5110 0.3841 0.0000
vt 0.5110 0.3881 0.0000
vt 0.5148 0.3881 0.0000
vt 0.5148 0.3841 0.0000
vt 0.1071 0.6125 0.0000
vt 0.0026 0.6686 0.0000
vt 0.0040 0.6649 0.0000
vt 0.0040 0.6722 0.0000
vt 0.0077 0.6635 0.0000
vt 0.0077 0.6737 0.0000
vt 0.0157 0.6686 0.0000
vt 0.0187 0.6635 0.0000
vt 0.0187 0.6737 0.0000
vt 0.5819 0.3929 0.0000
vt 0.5782 0.3943 0.0000
vt 0.5782 0.3841 0.0000
vt 0.5819 0.3856 0.0000
vt 0.0253 0.6300 0.0000
vt 0.0253 0.6260 0.0000
vt 0.0292 0.6260 0.0000
vt 0.0292 0.6300 0.0000
vt 0.0402 0.6260 0.0000
vt 0.0402 0.6300 0.0000
vt 0.7746 0.1019 0.0000
vt 0.7775 0.0968 0.0000
vt 0.7856 0.1018 0.0000
vt 0.7856 0.0917 0.0000
vt 0.7746 0.0917 0.0000
vt 0.0136 0.6260 0.0000
vt 0.0136 0.6300 0.0000
vt 0.0026 0.6300 0.0000
vt 0.0026 0.6260 0.0000
vt 0.5702 0.3892 0.0000
vt 0.5672 0.3943 0.0000
vt 0.5672 0.3841 0.0000
vt 0.0176 0.6260 0.0000
vt 0.0175 0.6300 0.0000
vt 0.0214 0.6300 0.0000
vt 0.0214 0.6260 0.0000
vt 0.5833 0.3892 0.0000
vt 0.7892 0.1004 0.0000
vt 0.7892 0.0931 0.0000
vt 0.7907 0.0968 0.0000
vt 0.0026 0.2599 0.0000
vt 0.8016 0.2599 0.0000
vt 0.8016 0.2622 0.0000
vt 0.0026 0.2622 0.0000
vt 0.8016 0.2644 0.0000
vt 0.0026 0.2645 0.0000
vt 0.0026 0.2667 0.0000
vt 0.8016 0.2667 0.0000
vt 0.0026 0.2690 0.0000
vt 0.8016 0.2690 0.0000
# 238 texture coords

g Mesh
usemtl default
f 1/1/1 2/2/1 3/3/1 4/4/1 
f 4/5/2 3/6/2 5/7/2 6/8/2 
f 6/8/3 5/7/3 7/9/3 8/10/3 
f 8/10/4 7/9/4 2/2/4 1/1/4 
f 9/11/5 10/12/5 11/13/5 12/14/5 
f 12/15/6 11/16/6 13/17/6 14/18/6 
f 15/19/5 16/20/5 17/21/5 18/22/5 
f 18/23/7 17/24/7 19/25/7 20/26/7 
f 21/27/8 22/28/8 14/29/8 13/30/8 
f 23/31/8 21/27/8 13/30/8 24/32/8 
f 24/33/9 13/34/9 11/35/9 25/36/9 
f 26/37/5 25/38/5 11/13/5 10/12/5 
f 26/39/10 10/40/10 21/41/10 23/42/10 
f 25/36/11 26/39/11 23/42/11 24/33/11 
f 16/20/12 14/29/12 22/28/12 17/21/12 
f 27/43/11 19/44/11 9/11/11 12/14/11 
f 20/45/8 19/44/8 27/43/8 28/46/8 
f 29/47/9 28/48/9 15/49/9 30/50/9 
f 31/51/5 30/52/5 15/19/5 18/22/5 
f 31/53/10 18/54/10 20/55/10 32/56/10 
f 32/57/8 20/45/8 28/46/8 29/58/8 
f 32/56/11 29/47/11 30/50/11 31/53/11 
f 27/59/6 12/15/6 14/18/6 16/60/6 
f 27/59/6 16/60/6 15/61/6 28/62/6 
f 9/63/7 22/64/7 21/65/7 10/66/7 
f 9/63/7 19/25/7 17/24/7 22/64/7 
f 33/67/13 34/68/13 35/69/13 36/70/13 
f 37/71/12 36/72/12 35/73/12 38/74/12 
f 38/74/12 35/73/12 39/75/12 40/76/12 
f 40/76/12 39/75/12 41/77/12 42/78/12 
f 43/79/12 42/78/12 41/77/12 44/80/12 
f 44/81/14 41/82/14 45/83/14 46/84/14 
f 47/85/11 46/86/11 45/87/11 48/88/11 
f 49/89/11 48/88/11 45/87/11 50/90/11 
f 39/91/5 50/92/5 45/83/5 41/82/5 
f 34/68/15 50/92/15 39/91/15 35/69/15 
f 50/90/11 34/93/11 51/94/11 49/89/11 
f 49/95/16 51/96/16 52/97/16 53/98/16 
f 53/99/12 52/100/12 54/101/12 55/102/12 
f 55/103/17 54/104/17 47/105/17 48/106/17 
f 55/103/5 48/106/5 49/95/5 53/98/5 
f 56/107/18 47/108/18 54/109/18 57/110/18 
f 57/111/12 54/101/12 52/100/12 58/112/12 
f 58/113/19 52/97/19 51/96/19 59/114/19 
f 33/115/11 59/116/11 51/94/11 34/93/11 
f 56/117/11 59/116/11 33/115/11 60/118/11 
f 61/119/8 60/120/8 33/67/8 36/70/8 
f 62/121/12 61/122/12 36/72/12 37/71/12 
f 63/123/8 62/124/8 37/125/8 64/126/8 
f 65/127/19 64/126/19 37/125/19 38/128/19 
f 66/129/16 65/127/16 38/128/16 40/130/16 
f 66/129/5 40/130/5 42/131/5 67/132/5 
f 68/133/17 67/132/17 42/131/17 43/134/17 
f 63/123/18 68/135/18 43/136/18 62/124/18 
f 61/122/12 62/121/12 43/79/12 44/80/12 
f 61/119/20 44/137/20 46/138/20 60/120/20 
f 56/117/11 60/118/11 46/86/11 47/85/11 
f 58/113/8 59/114/8 56/107/8 57/110/8 
f 69/139/11 70/140/11 71/141/11 72/142/11 
f 73/143/21 72/144/21 71/145/21 74/146/21 
f 75/147/5 76/148/5 74/146/5 71/145/5 
f 75/149/11 71/141/11 77/150/11 
f 77/150/11 71/141/11 70/140/11 
f 78/151/11 77/150/11 70/140/11 
f 79/152/8 78/153/8 70/154/8 80/155/8 
f 69/156/22 81/157/22 80/155/22 70/154/22 
f 82/158/23 81/157/23 69/156/23 83/159/23 
f 72/142/11 83/160/11 69/139/11 
f 73/143/24 82/158/24 83/159/24 72/144/24 
f 82/161/12 73/162/12 81/163/12 
f 74/164/12 80/165/12 81/163/12 73/162/12 
f 74/164/12 84/166/12 80/165/12 
f 74/164/12 76/167/12 84/166/12 
f 80/165/12 84/166/12 79/168/12 
f 85/169/11 86/170/11 87/171/11 88/172/11 
f 89/173/21 88/174/21 87/175/21 90/176/21 
f 91/177/5 92/178/5 90/176/5 87/175/5 
f 91/179/11 87/171/11 93/180/11 
f 93/180/11 87/171/11 86/170/11 
f 94/181/11 93/180/11 86/170/11 
f 95/182/8 94/183/8 86/184/8 96/185/8 
f 85/186/22 97/187/22 96/185/22 86/184/22 
f 98/188/23 97/187/23 85/186/23 99/189/23 
f 88/172/11 99/190/11 85/169/11 
f 89/173/24 98/188/24 99/189/24 88/174/24 
f 98/191/12 89/192/12 97/193/12 
f 90/194/12 96/195/12 97/193/12 89/192/12 
f 90/194/12 100/196/12 96/195/12 
f 90/194/12 92/197/12 100/196/12 
f 96/195/12 100/196/12 95/198/12 
f 101/199/11 102/200/11 103/201/11 104/202/11 
f 105/203/25 104/204/25 103/205/25 106/206/25 
f 106/206/8 103/205/8 107/207/8 108/208/8 
f 108/209/12 109/210/12 106/211/12 
f 106/211/12 109/210/12 110/212/12 
f 109/210/12 111/213/12 110/212/12 
f 102/214/5 110/215/5 111/216/5 112/217/5 
f 113/218/11 102/200/11 112/219/11 
f 103/201/11 102/200/11 113/218/11 
f 103/201/11 113/218/11 107/220/11 
f 110/215/26 102/214/26 101/221/26 114/222/26 
f 115/223/27 114/222/27 101/221/27 116/224/27 
f 104/202/11 116/225/11 101/199/11 
f 116/224/28 104/204/28 105/203/28 115/223/28 
f 105/226/12 114/227/12 115/228/12 
f 114/227/12 105/226/12 106/211/12 110/212/12 
f 117/229/29 118/230/29 119/231/29 120/232/29 
f 120/232/30 119/231/30 121/233/30 122/234/30 
f 123/235/31 122/234/31 121/233/31 124/236/31 
f 117/237/32 123/235/32 124/236/32 118/238/32 
# 86 polygons - 24 triangles

